<svg xmlns="http://www.w3.org/2000/svg" version="1.1" xmlns:xlink="http://www.w3.org/1999/xlink" xmlns:svgjs="http://svgjs.dev/svgjs" width="1000" height="1012" viewBox="0 0 1000 1012"><g transform="matrix(1,0,0,1,0.8839656290341509,0.40971659919023296)"><svg viewBox="0 0 244 247" data-background-color="#f9f9f9" preserveAspectRatio="xMidYMid meet" height="1012" width="1000" xmlns="http://www.w3.org/2000/svg" xmlns:xlink="http://www.w3.org/1999/xlink"><g id="tight-bounds" transform="matrix(1,0,0,1,-0.2156876134843344,-0.09999999999999432)"><svg viewBox="0 0 244.43135999999998 247.2" height="247.2" width="244.43135999999998"><g><svg></svg></g><g><svg viewBox="0 0 244.43135999999998 247.2" height="247.2" width="244.43135999999998"><g transform="matrix(1,0,0,1,0,82.0545500506679)"><svg viewBox="0 0 244.43135999999998 83.09089989866419" height="83.09089989866419" width="244.43135999999998"><g><svg viewBox="0 0 244.43135999999998 83.09089989866419" height="83.09089989866419" width="244.43135999999998"><g><svg viewBox="0 0 244.43135999999998 83.09089989866419" height="83.09089989866419" width="244.43135999999998"><g id="textblocktransform"><svg viewBox="0 0 244.43135999999998 83.09089989866419" height="83.09089989866419" width="244.43135999999998" id="textblock"><g><svg viewBox="0 0 244.43135999999998 83.09089989866419" height="83.09089989866419" width="244.43135999999998"><g transform="matrix(1,0,0,1,0,0)"><svg width="244.43135999999998" viewBox="3.799999952316284 -36.849998474121094 108.53999328613281 36.89999771118164" height="83.09089989866419" data-palette-color="#030303"><path d="M5.45 0L5.45 0Q4.8 0 4.3-0.33 3.8-0.65 3.8-1.3L3.8-1.3 3.8-35.35Q3.8-36 4.3-36.27 4.8-36.55 5.45-36.55L5.45-36.55Q6.05-36.55 6.58-36.27 7.1-36 7.1-35.35L7.1-35.35 7.1-17.65 21.55-36.05Q21.9-36.55 22.6-36.55L22.6-36.55Q23-36.55 23.43-36.3 23.85-36.05 24.13-35.68 24.4-35.3 24.4-34.85L24.4-34.85Q24.4-34.7 24.35-34.48 24.3-34.25 24.15-34.1L24.15-34.1 13.4-20.75 25.7-2.25Q25.9-1.95 25.9-1.6L25.9-1.6Q25.9-1.15 25.63-0.78 25.35-0.4 24.93-0.18 24.5 0.05 24 0.05L24 0.05Q23.65 0.05 23.33-0.13 23-0.3 22.75-0.65L22.75-0.65 11.2-18 7.1-12.8 7.1-1.3Q7.1-0.65 6.58-0.33 6.05 0 5.45 0ZM29.05 0L29.05 0Q28.65 0 28.2-0.18 27.75-0.35 27.45-0.68 27.15-1 27.15-1.4L27.15-1.4Q27.15-1.6 27.2-1.75L27.2-1.75 37.65-35.7Q37.85-36.3 38.4-36.58 38.95-36.85 39.6-36.85L39.6-36.85Q40.3-36.85 40.87-36.55 41.45-36.25 41.6-35.7L41.6-35.7 52-1.75Q52.05-1.6 52.05-1.45L52.05-1.45Q52.05-1.05 51.75-0.73 51.45-0.4 51-0.2 50.55 0 50.05 0L50.05 0Q49.65 0 49.3-0.2 48.95-0.4 48.85-0.85L48.85-0.85 46.5-8.55 32.7-8.55 30.4-0.85Q30.25-0.4 29.9-0.2 29.55 0 29.05 0ZM39.6-31.55L33.5-11.4 45.65-11.4 39.6-31.55ZM58.5 0L58.5 0Q57.84 0 57.34-0.33 56.84-0.65 56.84-1.3L56.84-1.3 56.84-34.95Q56.84-35.85 57.34-36.2 57.84-36.55 58.5-36.55L58.5-36.55Q59.09-36.55 59.57-36.23 60.05-35.9 60.45-35.38 60.84-34.85 61.15-34.25L61.15-34.25 69.75-17.65 78.34-34.25Q78.7-34.85 79.07-35.38 79.45-35.9 79.95-36.23 80.45-36.55 81-36.55L81-36.55Q81.7-36.55 82.17-36.2 82.65-35.85 82.65-34.95L82.65-34.95 82.65-1.3Q82.65-0.65 82.15-0.33 81.65 0 81 0L81 0Q80.4 0 79.87-0.33 79.34-0.65 79.34-1.3L79.34-1.3 79.34-29.4 71.05-13.7Q70.75-13.15 70.4-12.9 70.05-12.65 69.7-12.65L69.7-12.65Q69.4-12.65 69.05-12.88 68.7-13.1 68.4-13.7L68.4-13.7 60.15-29.55 60.15-1.3Q60.15-0.65 59.62-0.33 59.09 0 58.5 0ZM89.34 0L89.34 0Q88.94 0 88.49-0.18 88.04-0.35 87.74-0.68 87.44-1 87.44-1.4L87.44-1.4Q87.44-1.6 87.49-1.75L87.49-1.75 97.94-35.7Q98.14-36.3 98.69-36.58 99.24-36.85 99.89-36.85L99.89-36.85Q100.59-36.85 101.17-36.55 101.74-36.25 101.89-35.7L101.89-35.7 112.29-1.75Q112.34-1.6 112.34-1.45L112.34-1.45Q112.34-1.05 112.04-0.73 111.74-0.4 111.29-0.2 110.84 0 110.34 0L110.34 0Q109.94 0 109.59-0.2 109.24-0.4 109.14-0.85L109.14-0.85 106.79-8.55 92.99-8.55 90.69-0.85Q90.54-0.4 90.19-0.2 89.84 0 89.34 0ZM99.89-31.55L93.79-11.4 105.94-11.4 99.89-31.55Z" opacity="1" transform="matrix(1,0,0,1,0,0)" fill="#ffffff" class="undefined-text-0" data-fill-palette-color="primary" id="text-0"></path></svg></g></svg></g></svg></g></svg></g><g></g></svg></g></svg></g><path d="M0 76.055L0 1 244.431 1 244.431 76.055 236.938 76.055 236.938 8.493 7.493 8.493 7.493 76.055 0 76.055M0 171.145L0 246.2 244.431 246.2 244.431 171.145 236.938 171.145 236.938 238.707 7.493 238.707 7.493 171.145 0 171.145" fill="#ffffff" stroke="transparent" data-fill-palette-color="primary"></path></svg></g><defs></defs></svg><rect width="244.43135999999998" height="247.2" fill="none" stroke="none" visibility="hidden"></rect></g></svg></g></svg>